# xmcd
#
# Track frame offsets:
#	150
#	19649
#	37241
#	53985
#	69289
#	84834
#	99225
#	122940
#	141851
#	157302
#	183712
#
# Disc length: 2662 seconds
#
# Revision: 1
# Processed by: cddbd v1.5.1PL0 Copyright (c) Steve Scherf et al.
# Submitted via: dBpowerAMP V4.0
#
DISCID=970a640b
DTITLE=After All These Years - Hector's Place
DYEAR=2005
DGENRE=Roots
TTITLE0=Long Road
TTITLE1=3 Days
TTITLE2=Winter
TTITLE3=Tuesday's Ball
TTITLE4=Made A Mess Outta You
TTITLE5=Friend
TTITLE6=Hector's Place
TTITLE7=Workin' Late
TTITLE8=Until Then
TTITLE9=Butterfly
TTITLE10=Back To The Mountain
EXTD=Available from www.afteralltheseyears.net
EXTT0=
EXTT1=
EXTT2=
EXTT3=
EXTT4=
EXTT5=
EXTT6=
EXTT7=
EXTT8=
EXTT9=
EXTT10=
PLAYORDER=
